<?xml version="1.0" encoding="UTF-8" standalone="no"?>
<!DOCTYPE svg PUBLIC "-//W3C//DTD SVG 1.1//EN"
 "http://www.w3.org/Graphics/SVG/1.1/DTD/svg11.dtd">
<!-- Generated by graphviz version 2.38.0 (20140413.2041)
 -->
<!-- Title: g Pages: 1 -->
<svg width="603pt" height="305pt"
 viewBox="0.00 0.00 602.84 305.00" xmlns="http://www.w3.org/2000/svg" xmlns:xlink="http://www.w3.org/1999/xlink">
<g id="graph0" class="graph" transform="scale(1 1) rotate(0) translate(4 301)">
<title>g</title>
<polygon fill="white" stroke="none" points="-4,4 -4,-301 598.836,-301 598.836,4 -4,4"/>
<!-- ForwardRequest -->
<g id="node1" class="node"><title>ForwardRequest</title>
<ellipse fill="none" stroke="black" cx="189.894" cy="-192" rx="71.4873" ry="18"/>
<text text-anchor="middle" x="189.894" y="-188.3" font-family="Times New Roman,serif" font-size="14.00">ForwardRequest</text>
</g>
<!-- RequestHandler -->
<g id="node2" class="node"><title>RequestHandler</title>
<ellipse fill="none" stroke="black" cx="68.8939" cy="-105" rx="68.7879" ry="18"/>
<text text-anchor="middle" x="68.8939" y="-101.3" font-family="Times New Roman,serif" font-size="14.00">RequestHandler</text>
</g>
<!-- ForwardRequest&#45;&gt;RequestHandler -->
<g id="edge1" class="edge"><title>ForwardRequest&#45;&gt;RequestHandler</title>
<path fill="none" stroke="black" d="M166.85,-174.812C147.927,-161.519 120.943,-142.564 100.087,-127.912"/>
<polygon fill="black" stroke="black" points="102.047,-125.012 91.8521,-122.128 98.023,-130.74 102.047,-125.012"/>
<text text-anchor="middle" x="146.894" y="-144.8" font-family="Times New Roman,serif" font-size="14.00">is&#45;a</text>
</g>
<!-- ResponseHandler -->
<g id="node3" class="node"><title>ResponseHandler</title>
<ellipse fill="none" stroke="black" cx="230.894" cy="-105" rx="75.2868" ry="18"/>
<text text-anchor="middle" x="230.894" y="-101.3" font-family="Times New Roman,serif" font-size="14.00">ResponseHandler</text>
</g>
<!-- ForwardRequest&#45;&gt;ResponseHandler -->
<g id="edge2" class="edge"><title>ForwardRequest&#45;&gt;ResponseHandler</title>
<path fill="none" stroke="black" d="M198.191,-173.799C203.915,-161.932 211.635,-145.928 218.136,-132.449"/>
<polygon fill="black" stroke="black" points="221.417,-133.703 222.609,-123.175 215.112,-130.662 221.417,-133.703"/>
<text text-anchor="middle" x="227.894" y="-144.8" font-family="Times New Roman,serif" font-size="14.00">has&#45;a</text>
</g>
<!-- Processor -->
<g id="node6" class="node"><title>Processor</title>
<ellipse fill="none" stroke="black" cx="68.8939" cy="-18" rx="48.1917" ry="18"/>
<text text-anchor="middle" x="68.8939" y="-14.3" font-family="Times New Roman,serif" font-size="14.00">Processor</text>
</g>
<!-- RequestHandler&#45;&gt;Processor -->
<g id="edge5" class="edge"><title>RequestHandler&#45;&gt;Processor</title>
<path fill="none" stroke="black" d="M68.8939,-86.799C68.8939,-75.1626 68.8939,-59.5479 68.8939,-46.2368"/>
<polygon fill="black" stroke="black" points="72.394,-46.1754 68.8939,-36.1754 65.394,-46.1755 72.394,-46.1754"/>
<text text-anchor="middle" x="78.8939" y="-57.8" font-family="Times New Roman,serif" font-size="14.00">is&#45;a</text>
</g>
<!-- Proxy -->
<g id="node4" class="node"><title>Proxy</title>
<ellipse fill="none" stroke="black" cx="308.894" cy="-279" rx="32.4942" ry="18"/>
<text text-anchor="middle" x="308.894" y="-275.3" font-family="Times New Roman,serif" font-size="14.00">Proxy</text>
</g>
<!-- Proxy&#45;&gt;ForwardRequest -->
<g id="edge3" class="edge"><title>Proxy&#45;&gt;ForwardRequest</title>
<path fill="none" stroke="black" d="M289.774,-264.343C271.214,-251.086 242.728,-230.739 220.92,-215.162"/>
<polygon fill="black" stroke="black" points="222.799,-212.202 212.627,-209.238 218.73,-217.899 222.799,-212.202"/>
<text text-anchor="middle" x="266.894" y="-231.8" font-family="Times New Roman,serif" font-size="14.00">is&#45;a</text>
</g>
<!-- PathRegexMatcher -->
<g id="node5" class="node"><title>PathRegexMatcher</title>
<ellipse fill="none" stroke="black" cx="358.894" cy="-192" rx="79.0865" ry="18"/>
<text text-anchor="middle" x="358.894" y="-188.3" font-family="Times New Roman,serif" font-size="14.00">PathRegexMatcher</text>
</g>
<!-- Proxy&#45;&gt;PathRegexMatcher -->
<g id="edge4" class="edge"><title>Proxy&#45;&gt;PathRegexMatcher</title>
<path fill="none" stroke="black" d="M318.534,-261.611C325.704,-249.422 335.626,-232.556 343.838,-218.596"/>
<polygon fill="black" stroke="black" points="346.887,-220.314 348.941,-209.92 340.854,-216.765 346.887,-220.314"/>
<text text-anchor="middle" x="351.894" y="-231.8" font-family="Times New Roman,serif" font-size="14.00">has&#45;a</text>
</g>
<!-- SetupRequestProtocol -->
<g id="node7" class="node"><title>SetupRequestProtocol</title>
<ellipse fill="none" stroke="black" cx="501.894" cy="-279" rx="92.8835" ry="18"/>
<text text-anchor="middle" x="501.894" y="-275.3" font-family="Times New Roman,serif" font-size="14.00">SetupRequestProtocol</text>
</g>
<!-- http -->
<g id="node8" class="node"><title>http</title>
<ellipse fill="none" stroke="black" cx="487.894" cy="-192" rx="27" ry="18"/>
<text text-anchor="middle" x="487.894" y="-188.3" font-family="Times New Roman,serif" font-size="14.00">http</text>
</g>
<!-- SetupRequestProtocol&#45;&gt;http -->
<g id="edge6" class="edge"><title>SetupRequestProtocol&#45;&gt;http</title>
<path fill="none" stroke="black" d="M499.061,-260.799C497.144,-249.163 494.572,-233.548 492.38,-220.237"/>
<polygon fill="black" stroke="black" points="495.801,-219.474 490.723,-210.175 488.895,-220.611 495.801,-219.474"/>
<text text-anchor="middle" x="510.894" y="-231.8" font-family="Times New Roman,serif" font-size="14.00">has&#45;a</text>
</g>
<!-- https -->
<g id="node9" class="node"><title>https</title>
<ellipse fill="none" stroke="black" cx="561.894" cy="-192" rx="28.6953" ry="18"/>
<text text-anchor="middle" x="561.894" y="-188.3" font-family="Times New Roman,serif" font-size="14.00">https</text>
</g>
<!-- SetupRequestProtocol&#45;&gt;https -->
<g id="edge7" class="edge"><title>SetupRequestProtocol&#45;&gt;https</title>
<path fill="none" stroke="black" d="M515.934,-261.189C520.515,-255.511 525.541,-249.071 529.894,-243 535.653,-234.967 541.589,-225.935 546.76,-217.781"/>
<polygon fill="black" stroke="black" points="549.887,-219.381 552.223,-209.047 543.953,-215.669 549.887,-219.381"/>
<text text-anchor="middle" x="555.894" y="-231.8" font-family="Times New Roman,serif" font-size="14.00">has&#45;a</text>
</g>
<!-- Server -->
<g id="node10" class="node"><title>Server</title>
<ellipse fill="none" stroke="black" cx="524.894" cy="-105" rx="34.394" ry="18"/>
<text text-anchor="middle" x="524.894" y="-101.3" font-family="Times New Roman,serif" font-size="14.00">Server</text>
</g>
<!-- http&#45;&gt;Server -->
<g id="edge8" class="edge"><title>http&#45;&gt;Server</title>
<path fill="none" stroke="black" d="M495.028,-174.611C500.266,-162.577 507.49,-145.983 513.52,-132.128"/>
<polygon fill="black" stroke="black" points="516.873,-133.195 517.656,-122.629 510.455,-130.401 516.873,-133.195"/>
<text text-anchor="middle" x="518.894" y="-144.8" font-family="Times New Roman,serif" font-size="14.00">is&#45;a</text>
</g>
<!-- https&#45;&gt;Server -->
<g id="edge9" class="edge"><title>https&#45;&gt;Server</title>
<path fill="none" stroke="black" d="M554.584,-174.207C549.364,-162.216 542.241,-145.851 536.28,-132.157"/>
<polygon fill="black" stroke="black" points="539.389,-130.53 532.189,-122.758 532.971,-133.324 539.389,-130.53"/>
<text text-anchor="middle" x="555.894" y="-144.8" font-family="Times New Roman,serif" font-size="14.00">is&#45;a</text>
</g>
</g>
</svg>
